<svg width="26" height="23" viewBox="0 0 26 23" fill="none" xmlns="http://www.w3.org/2000/svg">
<path d="M10.3833 11.6534C10.8914 11.6534 11.3033 12.0653 11.3033 12.5734V17.48C11.3033 17.9881 10.8914 18.4 10.3833 18.4C9.87523 18.4 9.46333 17.9881 9.46333 17.48V12.5734C9.46333 12.0653 9.87523 11.6534 10.3833 11.6534Z" fill="#181927"/>
<path d="M16.8233 12.5734C16.8233 12.0653 16.4114 11.6534 15.9033 11.6534C15.3952 11.6534 14.9833 12.0653 14.9833 12.5734V17.48C14.9833 17.9881 15.3952 18.4 15.9033 18.4C16.4114 18.4 16.8233 17.9881 16.8233 17.48V12.5734Z" fill="#181927"/>
<path fill-rule="evenodd" clip-rule="evenodd" d="M11.5241 0.166395C11.9404 0.457776 12.0416 1.03142 11.7503 1.44767L8.68481 5.82671H17.6019L14.5363 1.44767C14.245 1.03142 14.3462 0.457776 14.7625 0.166395C15.1787 -0.124986 15.7523 -0.023774 16.0437 0.392481L19.8479 5.82671H22.6499C24.1742 5.82671 25.4099 7.0624 25.4099 8.58669V9.54976C25.4099 10.3818 25.0346 11.1696 24.3882 11.6936L22.9621 12.8499L21.9767 20.5886C21.8012 21.967 20.6284 23 19.2388 23H7.04778C5.65827 23 4.48541 21.967 4.3099 20.5886L3.32449 12.8499L1.89846 11.6936C1.25212 11.1695 0.876709 10.3818 0.876709 9.54976V8.58669C0.876709 7.0624 2.1124 5.82671 3.63669 5.82671H6.43878L10.2429 0.392481C10.5343 -0.023774 11.1079 -0.124986 11.5241 0.166395ZM22.6499 7.6667C23.158 7.6667 23.5699 8.0786 23.5699 8.58669V9.54976C23.5699 9.82714 23.4448 10.0896 23.2294 10.2643L21.5167 11.653C21.3327 11.8022 21.2134 12.0165 21.1835 12.2514L20.1515 20.3562C20.093 20.8157 19.702 21.16 19.2388 21.16H7.04778C6.5846 21.16 6.19366 20.8157 6.13514 20.3562L5.10313 12.2514C5.07322 12.0165 4.95387 11.8022 4.76992 11.653L3.05728 10.2643C2.84183 10.0896 2.7167 9.82714 2.7167 9.54976V8.58669C2.7167 8.0786 3.1286 7.6667 3.63669 7.6667H22.6499Z" fill="#181927"/>
</svg>
