<svg width="258" height="123" viewBox="0 0 258 123" fill="none" xmlns="http://www.w3.org/2000/svg">
<path d="M0 0H258V123H0V0Z" fill="#EFEFEF"/>
<path d="M126.26 59.61C122.204 60.0433 118.477 60.26 115.08 60.26C113.381 60.26 112.133 59.8613 111.336 59.064C110.538 58.2667 110.14 57.0187 110.14 55.32V47C110.14 45.18 110.547 43.8627 111.362 43.048C112.194 42.216 113.52 41.8 115.34 41.8H124.7V45.44H116.38C115.34 45.44 114.82 45.96 114.82 47V55.32C114.82 55.7187 114.932 56.0393 115.158 56.282C115.4 56.5073 115.721 56.62 116.12 56.62C118.113 56.62 119.933 56.5767 121.58 56.49V52.72H118.2V49.6H126.26V59.61ZM133.545 46.74V60H128.995V50.25H127.045V46.74H133.545ZM128.995 41.54H133.545V45.18H128.995V41.54ZM134.853 56.36C138.371 56.62 141.145 56.75 143.173 56.75C143.433 56.75 143.649 56.6633 143.823 56.49C143.996 56.3167 144.083 56.1 144.083 55.84V54.93H138.493C137.314 54.93 136.369 54.5747 135.659 53.864C134.948 53.1533 134.593 52.2087 134.593 51.03V50.12C134.593 48.9413 134.948 47.9967 135.659 47.286C136.369 46.5753 137.314 46.22 138.493 46.22H147.333V49.6H140.053C139.793 49.6 139.576 49.6867 139.403 49.86C139.229 50.0333 139.143 50.25 139.143 50.51C139.143 50.77 139.229 50.9867 139.403 51.16C139.576 51.3333 139.793 51.42 140.053 51.42H144.733C145.911 51.42 146.856 51.7753 147.567 52.486C148.277 53.1967 148.633 54.1413 148.633 55.32V56.36C148.633 57.5387 148.277 58.4833 147.567 59.194C146.856 59.9047 145.911 60.26 144.733 60.26C141.665 60.26 138.371 60.0867 134.853 59.74V56.36ZM149.155 56.36C152.674 56.62 155.447 56.75 157.475 56.75C157.735 56.75 157.952 56.6633 158.125 56.49C158.298 56.3167 158.385 56.1 158.385 55.84V54.93H152.795C151.616 54.93 150.672 54.5747 149.961 53.864C149.25 53.1533 148.895 52.2087 148.895 51.03V50.12C148.895 48.9413 149.25 47.9967 149.961 47.286C150.672 46.5753 151.616 46.22 152.795 46.22H161.635V49.6H154.355C154.095 49.6 153.878 49.6867 153.705 49.86C153.532 50.0333 153.445 50.25 153.445 50.51C153.445 50.77 153.532 50.9867 153.705 51.16C153.878 51.3333 154.095 51.42 154.355 51.42H159.035C160.214 51.42 161.158 51.7753 161.869 52.486C162.58 53.1967 162.935 54.1413 162.935 55.32V56.36C162.935 57.5387 162.58 58.4833 161.869 59.194C161.158 59.9047 160.214 60.26 159.035 60.26C155.967 60.26 152.674 60.0867 149.155 59.74V56.36ZM170.347 56.49C171.266 56.49 172.306 56.3167 173.467 55.97V46.22H178.017V60H173.987L173.727 58.7C172.912 59.2373 172.072 59.636 171.205 59.896C170.356 60.1387 169.636 60.26 169.047 60.26H167.877C166.698 60.26 165.754 59.9047 165.043 59.194C164.332 58.4833 163.977 57.5387 163.977 56.36V46.22H168.527V55.58C168.527 55.84 168.614 56.0567 168.787 56.23C168.96 56.4033 169.177 56.49 169.437 56.49H170.347Z" fill="#0E0D26"/>
<path d="M114.86 79H110.54V62.2H123.86V65.56H114.86V69.52H121.94V72.88H114.86V79ZM131.06 79C129.988 79.16 128.964 79.24 127.988 79.24C127.028 79.24 126.22 78.912 125.564 78.256C124.908 77.6 124.58 76.728 124.58 75.64V62.2H128.78V75.04C128.78 75.28 128.86 75.48 129.02 75.64C129.18 75.8 129.38 75.88 129.62 75.88H131.06V79ZM144.976 75.4C144.976 76.6 144.632 77.544 143.944 78.232C143.272 78.904 142.336 79.24 141.136 79.24H135.616C134.416 79.24 133.472 78.904 132.784 78.232C132.112 77.544 131.776 76.6 131.776 75.4V69.88C131.776 68.68 132.112 67.744 132.784 67.072C133.472 66.384 134.416 66.04 135.616 66.04H141.136C142.336 66.04 143.272 66.384 143.944 67.072C144.632 67.744 144.976 68.68 144.976 69.88V75.4ZM140.776 70.24C140.776 69.6 140.456 69.28 139.816 69.28H136.936C136.296 69.28 135.976 69.6 135.976 70.24V75.04C135.976 75.68 136.296 76 136.936 76H139.816C140.456 76 140.776 75.68 140.776 75.04V70.24ZM153.733 69.76C152.725 69.76 151.685 70 150.613 70.48V79H146.413V66.28H150.133L150.373 67.84C151.749 66.64 153.189 66.04 154.693 66.04H155.773V69.76H153.733ZM162.012 66.76V79H157.812V70H156.012V66.76H162.012ZM157.812 61.96H162.012V65.32H157.812V61.96ZM176.66 75.4C176.66 76.6 176.316 77.544 175.628 78.232C174.956 78.904 174.02 79.24 172.82 79.24H167.3C166.1 79.24 165.156 78.904 164.468 78.232C163.796 77.544 163.46 76.6 163.46 75.4V69.88C163.46 68.68 163.796 67.744 164.468 67.072C165.156 66.384 166.1 66.04 167.3 66.04H172.82C174.02 66.04 174.956 66.384 175.628 67.072C176.316 67.744 176.66 68.68 176.66 69.88V75.4ZM172.46 70.24C172.46 69.6 172.14 69.28 171.5 69.28H168.62C167.98 69.28 167.66 69.6 167.66 70.24V75.04C167.66 75.68 167.98 76 168.62 76H171.5C172.14 76 172.46 75.68 172.46 75.04V70.24ZM183.977 75.76C184.825 75.76 185.785 75.6 186.857 75.28V66.28H191.057V79H187.337L187.097 77.8C186.345 78.296 185.569 78.664 184.769 78.904C183.985 79.128 183.321 79.24 182.777 79.24H181.697C180.609 79.24 179.737 78.912 179.081 78.256C178.425 77.6 178.097 76.728 178.097 75.64V66.28H182.297V74.92C182.297 75.16 182.377 75.36 182.537 75.52C182.697 75.68 182.897 75.76 183.137 75.76H183.977Z" fill="#55555B"/>
<path d="M81.0996 78L96.4582 70.0512C97.0551 69.7414 97.3535 69.5884 97.5707 69.3598C97.7631 69.1592 97.9089 68.9186 97.9976 68.6552C98.0996 68.3549 98.0996 68.0205 98.0996 67.348V52.5611M81.0996 78L65.7411 70.0512C65.1442 69.7414 64.8457 69.5884 64.6285 69.3598C64.4365 69.1589 64.2908 68.9184 64.2016 68.6552C64.0996 68.3549 64.0996 68.0186 64.0996 67.3443V52.5611M81.0996 78V60.8802M98.0996 52.5611L81.0996 60.8802M98.0996 52.5611L89.5996 48.1598M64.0996 52.5611L79.7188 44.4782C80.2251 44.2175 80.4763 44.0853 80.7426 44.0343C80.9784 43.9886 81.2208 43.9886 81.4566 44.0343C81.7211 44.0853 81.9742 44.2175 82.4785 44.4782L89.5996 48.1598M64.0996 52.5611L72.5996 56.7225M81.0996 60.8802L72.5996 56.7206M89.5996 48.1598L72.5996 56.7206M72.5996 56.7206V60.8802" stroke="#55555B" stroke-width="2" stroke-linecap="round" stroke-linejoin="round"/>
</svg>
