<svg width="258" height="123" viewBox="0 0 258 123" fill="none" xmlns="http://www.w3.org/2000/svg">
<path d="M0 0H258V123H0V0Z" fill="#EFEFEF"/>
<path d="M62.8957 51.011L74 61.9986L70.5688 65.3971L67.5595 62.4275L56.0222 51L62.8957 51.011ZM61.9852 67.0689L56 61.1517L62.5848 61.1517C62.707 61.1517 62.8735 61.1517 62.9624 61.2287L65.4386 63.6814L68.8698 67.0579L65.4386 70.4675L63.0512 72.8322C62.9735 72.9092 62.8957 73.0191 62.7625 72.9971L56.0222 72.9971L61.9852 67.0689Z" fill="#55555B"/>
<path d="M96.2996 60.575L105.575 73H99.7996L91.7496 62.15H85.6246V73H80.5496V48.5H85.6246V59.525H91.3996L99.4496 48.5H105.05L96.2996 60.575ZM121.147 57.25H116.947C115.36 57.25 114.147 57.6817 113.307 58.545C112.467 59.385 112.047 60.645 112.047 62.325V73H107.147V62.325C107.147 59.945 107.894 58.1017 109.387 56.795C110.904 55.465 113.074 54.8 115.897 54.8H121.147V57.25ZM127.958 73H123.058V55.15H127.958V73ZM128.133 50.425C128.133 51.125 127.888 51.7433 127.398 52.28C126.932 52.7933 126.302 53.05 125.508 53.05C124.715 53.05 124.073 52.7933 123.583 52.28C123.117 51.7433 122.883 51.125 122.883 50.425C122.883 49.725 123.117 49.1183 123.583 48.605C124.073 48.0683 124.715 47.8 125.508 47.8C126.278 47.8 126.908 48.0683 127.398 48.605C127.888 49.1183 128.133 49.725 128.133 50.425ZM141.26 70.55C142.053 70.55 142.776 70.4333 143.43 70.2C144.106 69.9433 144.678 69.5467 145.145 69.01C145.635 68.4733 146.008 67.785 146.265 66.945C146.545 66.105 146.685 65.09 146.685 63.9C146.685 62.71 146.545 61.695 146.265 60.855C146.008 60.015 145.635 59.3267 145.145 58.79C144.678 58.2533 144.106 57.8683 143.43 57.635C142.776 57.3783 142.053 57.25 141.26 57.25H136.885V70.55H141.26ZM131.985 73V48.5H136.885V54.8H141.26C142.87 54.8 144.328 55.01 145.635 55.43C146.965 55.85 148.096 56.4567 149.03 57.25C149.963 58.0433 150.675 59 151.165 60.12C151.678 61.24 151.935 62.5 151.935 63.9C151.935 65.3 151.678 66.56 151.165 67.68C150.675 68.8 149.963 69.7567 149.03 70.55C148.096 71.3433 146.965 71.95 145.635 72.37C144.328 72.79 142.87 73 141.26 73H131.985ZM164.695 71.425C165.441 71.425 166.141 71.285 166.795 71.005C167.448 70.725 168.02 70.2933 168.51 69.71C169 69.1033 169.385 68.3217 169.665 67.365C169.968 66.4083 170.12 65.2533 170.12 63.9C170.12 62.5467 169.968 61.3917 169.665 60.435C169.385 59.4783 169 58.7083 168.51 58.125C168.02 57.5183 167.448 57.075 166.795 56.795C166.141 56.515 165.441 56.375 164.695 56.375C163.948 56.375 163.248 56.515 162.595 56.795C161.941 57.075 161.37 57.5183 160.88 58.125C160.39 58.7083 159.993 59.4783 159.69 60.435C159.41 61.3917 159.27 62.5467 159.27 63.9C159.27 65.2533 159.41 66.4083 159.69 67.365C159.993 68.3217 160.39 69.1033 160.88 69.71C161.37 70.2933 161.941 70.725 162.595 71.005C163.248 71.285 163.948 71.425 164.695 71.425ZM164.695 54.1C166.258 54.1 167.693 54.3217 169 54.765C170.33 55.185 171.461 55.815 172.395 56.655C173.328 57.4717 174.051 58.4983 174.565 59.735C175.101 60.9483 175.37 62.3367 175.37 63.9C175.37 65.4867 175.101 66.8867 174.565 68.1C174.051 69.3133 173.328 70.34 172.395 71.18C171.461 71.9967 170.33 72.615 169 73.035C167.693 73.4783 166.258 73.7 164.695 73.7C163.108 73.7 161.661 73.4783 160.355 73.035C159.048 72.615 157.928 71.9967 156.995 71.18C156.061 70.34 155.326 69.3133 154.79 68.1C154.276 66.8867 154.02 65.4867 154.02 63.9C154.02 62.3367 154.276 60.9483 154.79 59.735C155.326 58.4983 156.061 57.4717 156.995 56.655C157.928 55.815 159.048 55.185 160.355 54.765C161.661 54.3217 163.108 54.1 164.695 54.1ZM197.601 73H192.701V61.975C192.701 60.295 192.281 59.0933 191.441 58.37C190.601 57.6233 189.388 57.25 187.801 57.25H183.251V73H178.351V54.8H187.801C191.138 54.8 193.6 55.4067 195.186 56.62C196.796 57.81 197.601 59.595 197.601 61.975V73Z" fill="#0E0D26"/>
</svg>
