<svg width="258" height="123" viewBox="0 0 258 123" fill="none" xmlns="http://www.w3.org/2000/svg">
<path d="M0 0H258V123H0V0Z" fill="#EFEFEF"/>
<path d="M71.7166 61V46.006H75.0346V58.228H86.6266V61H71.7166ZM91.9593 51.97H102.942V54.49H91.9593V58.354H103.593V61H88.6413V46.006H103.32V48.652H91.9593V51.97ZM117.594 50.542C117.524 49.632 117.097 48.995 116.313 48.631C115.543 48.267 114.444 48.085 113.016 48.085C110.342 48.085 109.005 48.729 109.005 50.017C109.005 50.535 109.187 50.906 109.551 51.13C109.915 51.354 110.503 51.508 111.315 51.592L116.985 52.096C118.553 52.236 119.75 52.649 120.576 53.335C121.402 54.007 121.815 55.064 121.815 56.506C121.815 58.298 121.094 59.565 119.652 60.307C118.21 61.049 116.082 61.42 113.268 61.42C110.538 61.42 108.452 61.021 107.01 60.223C105.568 59.411 104.819 57.99 104.763 55.96H108.48C108.564 57.08 109.012 57.85 109.824 58.27C110.65 58.676 111.84 58.879 113.394 58.879C116.46 58.879 117.993 58.165 117.993 56.737C117.993 56.121 117.797 55.68 117.405 55.414C117.027 55.148 116.467 54.98 115.725 54.91L110.076 54.343C108.494 54.189 107.29 53.797 106.464 53.167C105.652 52.537 105.246 51.557 105.246 50.227C105.246 47.133 107.864 45.586 113.1 45.586C115.648 45.586 117.636 45.964 119.064 46.72C120.506 47.476 121.255 48.75 121.311 50.542H117.594ZM135.523 50.542C135.453 49.632 135.026 48.995 134.242 48.631C133.472 48.267 132.373 48.085 130.945 48.085C128.271 48.085 126.934 48.729 126.934 50.017C126.934 50.535 127.116 50.906 127.48 51.13C127.844 51.354 128.432 51.508 129.244 51.592L134.914 52.096C136.482 52.236 137.679 52.649 138.505 53.335C139.331 54.007 139.744 55.064 139.744 56.506C139.744 58.298 139.023 59.565 137.581 60.307C136.139 61.049 134.011 61.42 131.197 61.42C128.467 61.42 126.381 61.021 124.939 60.223C123.497 59.411 122.748 57.99 122.692 55.96H126.409C126.493 57.08 126.941 57.85 127.753 58.27C128.579 58.676 129.769 58.879 131.323 58.879C134.389 58.879 135.922 58.165 135.922 56.737C135.922 56.121 135.726 55.68 135.334 55.414C134.956 55.148 134.396 54.98 133.654 54.91L128.005 54.343C126.423 54.189 125.219 53.797 124.393 53.167C123.581 52.537 123.175 51.557 123.175 50.227C123.175 47.133 125.793 45.586 131.029 45.586C133.577 45.586 135.565 45.964 136.993 46.72C138.435 47.476 139.184 48.75 139.24 50.542H135.523ZM141.651 61V46.006H144.969V61H141.651ZM156.446 45.586C159.386 45.586 161.703 46.258 163.397 47.602C165.091 48.932 165.938 50.899 165.938 53.503C165.938 56.107 165.091 58.081 163.397 59.425C161.703 60.755 159.386 61.42 156.446 61.42C153.506 61.42 151.189 60.755 149.495 59.425C147.801 58.081 146.954 56.107 146.954 53.503C146.954 50.899 147.801 48.932 149.495 47.602C151.189 46.258 153.506 45.586 156.446 45.586ZM156.446 58.648C158.294 58.648 159.729 58.214 160.751 57.346C161.773 56.478 162.284 55.197 162.284 53.503C162.284 51.809 161.773 50.528 160.751 49.66C159.729 48.792 158.294 48.358 156.446 48.358C154.598 48.358 153.163 48.792 152.141 49.66C151.119 50.528 150.608 51.809 150.608 53.503C150.608 55.197 151.119 56.478 152.141 57.346C153.163 58.214 154.598 58.648 156.446 58.648ZM184.67 46.006V61H180.89L171.188 50.059H171.083V61H167.933V46.006H171.818L181.415 56.821H181.52V46.006H184.67Z" fill="#0E0D26"/>
<path d="M104.92 69.992V72.116H111.196V73.604H104.92V77H103.024V68.432H111.436V69.992H104.92ZM114.173 77V68.432H116.069V77H114.173ZM127.283 72.416C127.691 72.544 128.011 72.772 128.243 73.1C128.483 73.42 128.603 73.9 128.603 74.54C128.603 75.372 128.367 75.992 127.895 76.4C127.423 76.8 126.679 77 125.663 77H119.111V68.432H125.531C127.379 68.432 128.303 69.168 128.303 70.64C128.303 71.096 128.215 71.468 128.039 71.756C127.863 72.044 127.611 72.244 127.283 72.356V72.416ZM125.075 71.9C125.475 71.9 125.767 71.82 125.951 71.66C126.143 71.492 126.239 71.236 126.239 70.892C126.239 70.54 126.143 70.284 125.951 70.124C125.767 69.964 125.475 69.884 125.075 69.884H121.007V71.9H125.075ZM125.195 75.548C125.659 75.548 125.995 75.456 126.203 75.272C126.419 75.088 126.527 74.796 126.527 74.396C126.527 73.996 126.419 73.704 126.203 73.52C125.995 73.328 125.659 73.232 125.195 73.232H121.007V75.548H125.195ZM133.211 71.84H139.487V73.28H133.211V75.488H139.859V77H131.315V68.432H139.703V69.944H133.211V71.84ZM154.123 77H152.227V70.256H152.167L149.167 77H147.595L144.547 70.16H144.487V77H142.675V68.432H145.723L148.363 74.504H148.411L151.027 68.432H154.123V77Z" fill="#55555B"/>
</svg>
