<svg width="258" height="123" viewBox="0 0 258 123" fill="none" xmlns="http://www.w3.org/2000/svg">
<path d="M0 0H258V123H0V0Z" fill="#EFEFEF"/>
<path d="M72.825 50.94C75.135 50.94 77.2233 51.4767 79.09 52.55C80.98 53.6233 82.4617 55.1283 83.535 57.065C84.6317 58.9783 85.18 61.1483 85.18 63.575C85.18 66.0017 84.6317 68.1833 83.535 70.12C82.4617 72.0567 80.98 73.5617 79.09 74.635C77.2233 75.7083 75.135 76.245 72.825 76.245C70.515 76.245 68.415 75.7083 66.525 74.635C64.6583 73.5617 63.1767 72.0567 62.08 70.12C61.0067 68.1833 60.47 66.0017 60.47 63.575C60.47 61.1483 61.0067 58.9783 62.08 57.065C63.1767 55.1283 64.6583 53.6233 66.525 52.55C68.415 51.4767 70.515 50.94 72.825 50.94ZM72.825 55.49C71.3783 55.49 70.1067 55.8167 69.01 56.47C67.9133 57.1233 67.05 58.0683 66.42 59.305C65.8133 60.5183 65.51 61.9417 65.51 63.575C65.51 65.2083 65.8133 66.6433 66.42 67.88C67.05 69.0933 67.9133 70.0267 69.01 70.68C70.1067 71.3333 71.3783 71.66 72.825 71.66C74.2717 71.66 75.5433 71.3333 76.64 70.68C77.7367 70.0267 78.5883 69.0933 79.195 67.88C79.825 66.6433 80.14 65.2083 80.14 63.575C80.14 61.9417 79.825 60.5183 79.195 59.305C78.5883 58.0683 77.7367 57.1233 76.64 56.47C75.5433 55.8167 74.2717 55.49 72.825 55.49ZM107.721 76H102.786L91.7264 59.2V76H86.7914V51.29H91.7264L102.786 68.23V51.29H107.721V76ZM114.847 51.29V65.78C114.847 67.7167 115.267 69.175 116.107 70.155C116.97 71.1117 118.207 71.59 119.817 71.59C121.404 71.59 122.617 71.1117 123.457 70.155C124.32 69.175 124.752 67.7167 124.752 65.78V51.29H129.652V65.78C129.652 68.0667 129.22 70.0033 128.357 71.59C127.517 73.1533 126.339 74.32 124.822 75.09C123.329 75.86 121.625 76.245 119.712 76.245C116.749 76.245 114.38 75.3583 112.607 73.585C110.834 71.8117 109.947 69.21 109.947 65.78V51.29H114.847ZM143.043 51.045C146.123 51.045 148.678 51.8383 150.708 53.425C152.738 55.0117 154.08 57.17 154.733 59.9H149.553C149.017 58.57 148.177 57.52 147.033 56.75C145.913 55.98 144.56 55.595 142.973 55.595C141.667 55.595 140.488 55.9217 139.438 56.575C138.388 57.2283 137.572 58.1617 136.988 59.375C136.405 60.5883 136.113 62.0117 136.113 63.645C136.113 65.255 136.405 66.6667 136.988 67.88C137.572 69.0933 138.388 70.0267 139.438 70.68C140.488 71.3333 141.667 71.66 142.973 71.66C144.56 71.66 145.913 71.275 147.033 70.505C148.177 69.735 149.017 68.685 149.553 67.355H154.733C154.08 70.085 152.738 72.2433 150.708 73.83C148.678 75.4167 146.123 76.21 143.043 76.21C140.687 76.21 138.598 75.685 136.778 74.635C134.982 73.5617 133.582 72.0683 132.578 70.155C131.598 68.2417 131.108 66.0717 131.108 63.645C131.108 61.195 131.598 59.0133 132.578 57.1C133.582 55.1867 134.982 53.705 136.778 52.655C138.575 51.5817 140.663 51.045 143.043 51.045ZM161.096 51.29V65.78C161.096 67.7167 161.516 69.175 162.356 70.155C163.219 71.1117 164.456 71.59 166.066 71.59C167.653 71.59 168.866 71.1117 169.706 70.155C170.569 69.175 171.001 67.7167 171.001 65.78V51.29H175.901V65.78C175.901 68.0667 175.469 70.0033 174.606 71.59C173.766 73.1533 172.588 74.32 171.071 75.09C169.578 75.86 167.874 76.245 165.961 76.245C162.998 76.245 160.629 75.3583 158.856 73.585C157.083 71.8117 156.196 69.21 156.196 65.78V51.29H161.096ZM191.918 63.26C193.411 63.5633 194.601 64.275 195.488 65.395C196.398 66.4917 196.853 67.7867 196.853 69.28C196.853 71.3567 196.153 73.0017 194.753 74.215C193.376 75.405 191.369 76 188.733 76H178.128V51.29H188.523C191.019 51.29 192.933 51.8383 194.263 52.935C195.616 54.0317 196.293 55.5717 196.293 57.555C196.293 59.095 195.884 60.355 195.068 61.335C194.274 62.315 193.224 62.9567 191.918 63.26ZM183.063 61.65H187.508C188.744 61.65 189.678 61.3817 190.308 60.845C190.961 60.285 191.288 59.4917 191.288 58.465C191.288 57.4383 190.973 56.645 190.343 56.085C189.713 55.525 188.744 55.245 187.438 55.245H183.063V61.65ZM187.753 71.975C189.059 71.975 190.063 71.695 190.763 71.135C191.463 70.5517 191.813 69.7117 191.813 68.615C191.813 67.5183 191.451 66.6783 190.728 66.095C190.028 65.4883 189.024 65.185 187.718 65.185H183.063V71.975H187.753Z" fill="#0E0D26"/>
<rect x="61.9004" y="79" width="134" height="3" fill="#0E0D26"/>
<rect x="61.9004" y="41" width="134" height="3" fill="#0E0D26"/>
<rect x="61.9004" y="45" width="19" height="3" fill="#0E0D26"/>
<rect x="84.9004" y="45" width="17" height="3" fill="#0E0D26"/>
<rect x="106.9" y="45" width="7" height="3" fill="#0E0D26"/>
<rect x="117.9" y="45" width="9" height="3" fill="#0E0D26"/>
<rect x="130.9" y="45" width="17" height="3" fill="#0E0D26"/>
<rect x="150.9" y="45" width="45" height="3" fill="#0E0D26"/>
</svg>
