<svg width="32" height="32" viewBox="0 0 32 32" fill="none" xmlns="http://www.w3.org/2000/svg">
<path d="M20.9113 30.5117C21.1342 29.124 21.25 27.7005 21.25 26.25C21.25 23.0792 20.6967 20.0377 19.6812 17.2167M19.6812 17.2167C14.606 19.6642 10.4246 23.6718 7.75947 28.6175M19.6812 17.2167C19.0805 15.5482 18.3182 13.957 17.4132 12.4617M19.6812 17.2167C23.1547 15.5415 27.047 14.5973 31.1585 14.5835M17.4132 12.4617C15.1868 8.78313 12.0963 5.68592 8.42317 3.45137M17.4132 12.4617C12.9513 15.8668 7.38298 17.8962 1.34153 17.9165M17.4132 12.4617C20.4243 10.1637 22.9317 7.23915 24.7405 3.88258M31.25 16.25C31.25 24.5343 24.5343 31.25 16.25 31.25C7.96573 31.25 1.25 24.5343 1.25 16.25C1.25 7.96573 7.96573 1.25 16.25 1.25C24.5343 1.25 31.25 7.96573 31.25 16.25Z" stroke="white" stroke-width="1.5" stroke-linecap="round" stroke-linejoin="round"/>
</svg>
