<svg width="32" height="32" viewBox="0 0 32 32" fill="none" xmlns="http://www.w3.org/2000/svg">
<path d="M2.27322 3.7481C1 5.50053 1 8.00035 1 13V19C1 23.9997 1 26.4995 2.27322 28.2518C2.68442 28.8178 3.18213 29.3155 3.7481 29.7268C5.50053 31 8.00035 31 13 31H19C23.9997 31 26.4995 31 28.2518 29.7268C28.8178 29.3155 29.3155 28.8178 29.7268 28.2518C31 26.4995 31 23.9997 31 19V13C31 8.00035 31 5.50053 29.7268 3.7481C29.3155 3.18213 28.8178 2.68442 28.2518 2.27322C26.4995 1 23.9997 1 19 1H13C8.00035 1 5.50053 1 3.7481 2.27322C3.18213 2.68442 2.68442 3.18213 2.27322 3.7481Z" stroke="white" stroke-linejoin="round"/>
<path d="M15.8 25H16.2C16.9499 25 17.3249 25 17.5878 24.809C17.6727 24.7473 17.7473 24.6727 17.809 24.5878C18 24.3249 18 23.9499 18 23.2V17.5H19.25C19.9522 17.5 20.3033 17.5 20.5556 17.3315C20.6648 17.2585 20.7585 17.1648 20.8315 17.0556C21 16.8033 21 16.4522 21 15.75C21 15.0478 21 14.6967 20.8315 14.4444C20.7585 14.3352 20.6648 14.2415 20.5556 14.1685C20.3033 14 19.9522 14 19.25 14H18V12C18 11.5341 18 11.3011 18.0761 11.1173C18.1776 10.8723 18.3723 10.6776 18.6173 10.5761C18.8011 10.5 19.0341 10.5 19.5 10.5C19.9659 10.5 20.1989 10.5 20.3827 10.4239C20.6277 10.3224 20.8224 10.1277 20.9239 9.88268C21 9.69891 21 9.46594 21 9V8.55556C21 8.03739 21 7.77831 20.9063 7.57738C20.8069 7.36431 20.6357 7.19305 20.4226 7.09369C20.2217 7 19.9626 7 19.4444 7C17.6309 7 16.7241 7 16.0208 7.32792C15.2751 7.67568 14.6757 8.27507 14.3279 9.02084C14 9.72407 14 10.6309 14 12.4445V14H12.75C12.0478 14 11.6966 14 11.4444 14.1685C11.3352 14.2415 11.2415 14.3352 11.1685 14.4444C11 14.6967 11 15.0478 11 15.75C11 16.4522 11 16.8033 11.1685 17.0556C11.2415 17.1648 11.3352 17.2585 11.4444 17.3315C11.6966 17.5 12.0478 17.5 12.75 17.5H14V23.2C14 23.9499 14 24.3249 14.191 24.5878C14.2527 24.6727 14.3273 24.7473 14.4122 24.809C14.6751 25 15.0501 25 15.8 25Z" stroke="white" stroke-linejoin="round"/>
</svg>
