<svg width="32" height="32" viewBox="0 0 32 32" fill="none" xmlns="http://www.w3.org/2000/svg">
<path d="M23.1714 0.742188H8.82857C4.50497 0.742188 1 4.24716 1 8.57076V22.9136C1 27.2372 4.50497 30.7422 8.82857 30.7422H23.1714C27.495 30.7422 31 27.2372 31 22.9136V8.57076C31 4.24716 27.495 0.742188 23.1714 0.742188Z" stroke="white" stroke-width="1.5" stroke-linecap="round" stroke-linejoin="round"/>
<path d="M16 23.5993C20.3394 23.5993 23.8571 20.0816 23.8571 15.7422C23.8571 11.4028 20.3394 7.88504 16 7.88504C11.6606 7.88504 8.14286 11.4028 8.14286 15.7422C8.14286 20.0816 11.6606 23.5993 16 23.5993Z" stroke="white" stroke-width="1.5" stroke-linecap="round" stroke-linejoin="round"/>
<path d="M24.5714 6.45647C24.9659 6.45647 25.2857 6.13668 25.2857 5.74219C25.2857 5.3477 24.9659 5.0279 24.5714 5.0279C24.1769 5.0279 23.8571 5.3477 23.8571 5.74219C23.8571 6.13668 24.1769 6.45647 24.5714 6.45647Z" stroke="white" stroke-width="1.5" stroke-linecap="round" stroke-linejoin="round"/>
</svg>
