<svg width="32" height="32" viewBox="0 0 32 32" fill="none" xmlns="http://www.w3.org/2000/svg">
<path d="M15.3333 13.75C15.3333 13.3358 14.9975 13 14.5833 13C14.1691 13 13.8333 13.3358 13.8333 13.75H15.3333ZM13.8333 23.75C13.8333 24.1642 14.1691 24.5 14.5833 24.5C14.9975 24.5 15.3333 24.1642 15.3333 23.75H13.8333ZM23 23.75C23 24.1642 23.3358 24.5 23.75 24.5C24.1642 24.5 24.5 24.1642 24.5 23.75H23ZM9.5 13.75C9.5 13.3358 9.16421 13 8.75 13C8.33579 13 8 13.3358 8 13.75H9.5ZM8 23.75C8 24.1642 8.33579 24.5 8.75 24.5C9.16421 24.5 9.5 24.1642 9.5 23.75H8ZM2.52322 3.9981L1.91645 3.55726L1.91645 3.55726L2.52322 3.9981ZM3.9981 2.52322L3.55726 1.91645L3.55726 1.91645L3.9981 2.52322ZM28.5018 2.52322L28.061 3.12997L28.061 3.12999L28.5018 2.52322ZM29.9768 3.9981L30.5836 3.55727L30.5835 3.55717L29.9768 3.9981ZM29.9768 28.5018L30.5835 28.9428L30.5836 28.9427L29.9768 28.5018ZM28.5018 29.9768L28.9427 30.5836L28.9428 30.5835L28.5018 29.9768ZM3.9981 29.9768L3.55717 30.5835L3.55727 30.5836L3.9981 29.9768ZM2.52322 28.5018L3.12999 28.061L3.12997 28.061L2.52322 28.5018ZM14.5833 13.75H13.8333V23.75H14.5833H15.3333V13.75H14.5833ZM14.5833 23.75H15.3333V19.4792H14.5833H13.8333V23.75H14.5833ZM14.5833 19.4792H15.3333C15.3333 16.7292 17.5625 14.5 20.3125 14.5V13.75V13C16.7341 13 13.8333 15.9008 13.8333 19.4792H14.5833ZM20.3125 13.75V14.5C21.7968 14.5 23 15.7032 23 17.1875H23.75H24.5C24.5 14.8748 22.6252 13 20.3125 13V13.75ZM23.75 17.1875H23V23.75H23.75H24.5V17.1875H23.75ZM8.75 13.75H8V23.75H8.75H9.5V13.75H8.75ZM10.4167 8.75H9.66667C9.66667 9.25626 9.25626 9.66667 8.75 9.66667V10.4167V11.1667C10.0847 11.1667 11.1667 10.0847 11.1667 8.75H10.4167ZM8.75 10.4167V9.66667C8.24374 9.66667 7.83333 9.25626 7.83333 8.75H7.08333H6.33333C6.33333 10.0847 7.41531 11.1667 8.75 11.1667V10.4167ZM7.08333 8.75H7.83333C7.83333 8.24374 8.24374 7.83333 8.75 7.83333V7.08333V6.33333C7.41531 6.33333 6.33333 7.41531 6.33333 8.75H7.08333ZM8.75 7.08333V7.83333C9.25626 7.83333 9.66667 8.24374 9.66667 8.75H10.4167H11.1667C11.1667 7.41531 10.0847 6.33333 8.75 6.33333V7.08333ZM1.25 13.25H2C2 10.7335 2.00103 8.90632 2.15479 7.48713C2.30703 6.08198 2.60174 5.166 3.12998 4.43894L2.52322 3.9981L1.91645 3.55726C1.17147 4.58264 0.829581 5.79278 0.663516 7.32556C0.498971 8.8443 0.5 10.7669 0.5 13.25H1.25ZM2.52322 3.9981L3.12998 4.43894C3.49492 3.93664 3.93664 3.49492 4.43894 3.12998L3.9981 2.52322L3.55726 1.91645C2.92762 2.37391 2.37391 2.92762 1.91645 3.55726L2.52322 3.9981ZM3.9981 2.52322L4.43894 3.12998C5.166 2.60174 6.08198 2.30703 7.48713 2.15479C8.90632 2.00103 10.7335 2 13.25 2V1.25V0.5C10.7669 0.5 8.8443 0.498971 7.32556 0.663516C5.79278 0.829581 4.58264 1.17147 3.55726 1.91645L3.9981 2.52322ZM13.25 1.25V2H19.25V1.25V0.5H13.25V1.25ZM19.25 1.25V2C21.7665 2 23.5937 2.00103 25.0129 2.15479C26.418 2.30703 27.334 2.60174 28.061 3.12997L28.5018 2.52322L28.9427 1.91647C27.9174 1.17147 26.7072 0.829581 25.1745 0.663516C23.6557 0.498971 21.7331 0.5 19.25 0.5V1.25ZM28.5018 2.52322L28.061 3.12999C28.5633 3.49491 29.005 3.93664 29.3701 4.43903L29.9768 3.9981L30.5835 3.55717C30.126 2.92762 29.5724 2.37393 28.9427 1.91644L28.5018 2.52322ZM29.9768 3.9981L29.3701 4.43893C29.8983 5.16599 30.193 6.08197 30.3452 7.48713C30.499 8.90632 30.5 10.7335 30.5 13.25H31.25H32C32 10.7669 32.001 8.8443 31.8365 7.32556C31.6704 5.79279 31.3286 4.58265 30.5836 3.55727L29.9768 3.9981ZM31.25 13.25H30.5V19.25H31.25H32V13.25H31.25ZM31.25 19.25H30.5C30.5 21.7665 30.499 23.5937 30.3452 25.0129C30.193 26.418 29.8983 27.334 29.3701 28.061L29.9768 28.5018L30.5836 28.9427C31.3286 27.9173 31.6704 26.7072 31.8365 25.1744C32.001 23.6557 32 21.7331 32 19.25H31.25ZM29.9768 28.5018L29.3701 28.0609C29.005 28.5633 28.5633 29.005 28.0609 29.3701L28.5018 29.9768L28.9428 30.5835C29.5724 30.126 30.126 29.5724 30.5835 28.9428L29.9768 28.5018ZM28.5018 29.9768L28.061 29.3701C27.334 29.8983 26.418 30.193 25.0129 30.3452C23.5937 30.499 21.7665 30.5 19.25 30.5V31.25V32C21.7331 32 23.6557 32.001 25.1744 31.8365C26.7072 31.6704 27.9173 31.3286 28.9427 30.5836L28.5018 29.9768ZM19.25 31.25V30.5H13.25V31.25V32H19.25V31.25ZM13.25 31.25V30.5C10.7335 30.5 8.90632 30.499 7.48713 30.3452C6.08197 30.193 5.16599 29.8983 4.43893 29.3701L3.9981 29.9768L3.55727 30.5836C4.58265 31.3286 5.79279 31.6704 7.32556 31.8365C8.8443 32.001 10.7669 32 13.25 32V31.25ZM3.9981 29.9768L4.43903 29.3701C3.93664 29.005 3.49491 28.5633 3.12999 28.061L2.52322 28.5018L1.91644 28.9427C2.37393 29.5724 2.92762 30.126 3.55717 30.5835L3.9981 29.9768ZM2.52322 28.5018L3.12997 28.061C2.60174 27.334 2.30703 26.418 2.15479 25.0129C2.00103 23.5937 2 21.7665 2 19.25H1.25H0.5C0.5 21.7331 0.498971 23.6557 0.663516 25.1745C0.829581 26.7072 1.17147 27.9174 1.91647 28.9427L2.52322 28.5018ZM1.25 19.25H2V13.25H1.25H0.5V19.25H1.25Z" fill="white"/>
</svg>
