<svg width="10" height="95" viewBox="0 0 10 95" fill="none" xmlns="http://www.w3.org/2000/svg">
<path d="M5.884 4.536C5.476 6.096 4.756 6.768 3.472 6.768C1.912 6.768 0.88 5.544 0.88 3.708C0.88 1.764 1.996 0.66 3.616 0.624L3.616 2.292C2.788 2.328 2.32 2.844 2.32 3.84C2.32 4.608 2.728 5.112 3.328 5.112C3.844 5.112 4.156 4.776 4.372 3.984L4.636 2.964C5.032 1.428 5.74 0.768 6.988 0.768C8.512 0.768 9.532 1.944 9.532 3.708C9.532 5.544 8.32 6.612 6.892 6.648L6.892 4.968C7.612 4.92 8.092 4.44 8.092 3.612C8.092 2.892 7.708 2.412 7.144 2.412C6.64 2.412 6.352 2.712 6.184 3.408L5.884 4.536ZM0.879999 12.5905C0.88 9.86653 2.608 8.05453 5.2 8.05453C7.792 8.05453 9.52 9.86653 9.52 12.5905C9.52 14.9185 8.212 16.5745 6.16 16.9225L6.16 15.2425C7.336 14.9305 8.08 13.9465 8.08 12.5905C8.08 10.8625 6.928 9.71053 5.2 9.71053C3.472 9.71053 2.32 10.8625 2.32 12.5905C2.32 13.9465 3.064 14.9305 4.24 15.2425L4.24 16.9225C2.188 16.5745 0.879999 14.9185 0.879999 12.5905ZM4.06 24.1117L0.999999 26.0437L0.999999 24.0997L3.544 22.5397C3.892 22.3357 4 22.0957 4 21.6157L4 20.2597L0.999999 20.2597L0.999999 18.6037L9.4 18.6037L9.4 21.9637C9.4 23.8597 8.344 25.1197 6.748 25.1197C5.728 25.1197 4.924 24.5077 4.576 23.6558C4.456 23.8238 4.288 23.9677 4.06 24.1117ZM5.356 21.9637C5.356 22.8637 5.896 23.4637 6.652 23.4637C7.444 23.4637 7.96 22.8638 7.96 21.9637L7.96 20.2597L5.356 20.2597L5.356 21.9637ZM0.879999 31.0627C0.879999 28.3987 2.608 26.6227 5.2 26.6227C7.792 26.6227 9.52 28.3987 9.52 31.0627C9.52 33.7267 7.792 35.5027 5.2 35.5027C2.608 35.5027 0.879999 33.7267 0.879999 31.0627ZM2.32 31.0627C2.32 32.7427 3.472 33.8587 5.2 33.8587C6.928 33.8587 8.08 32.7427 8.08 31.0627C8.08 29.3947 6.928 28.2787 5.2 28.2787C3.472 28.2787 2.32 29.3947 2.32 31.0627ZM9.4 37.1836L9.4 38.8396L2.44 38.8396L2.44 42.3436L0.999998 42.3436L0.999998 37.1836L9.4 37.1836ZM9.4 43.6434L9.4 45.2994L2.44 45.2994L2.44 48.8034L0.999998 48.8034L0.999998 43.6434L9.4 43.6434ZM0.999998 53.1647L9.4 53.1647L9.4 56.6447C9.4 59.3087 7.72 61.0847 5.2 61.0847C2.68 61.0847 0.999997 59.3087 0.999998 56.6447L0.999998 53.1647ZM2.44 56.6447C2.44 58.3247 3.544 59.4407 5.2 59.4407C6.856 59.4407 7.96 58.3247 7.96 56.6447L7.96 54.8207L2.44 54.8207L2.44 56.6447ZM0.879997 66.7252C0.879997 64.0612 2.608 62.2852 5.2 62.2852C7.792 62.2852 9.52 64.0612 9.52 66.7252C9.52 69.3892 7.792 71.1652 5.2 71.1652C2.608 71.1652 0.879997 69.3892 0.879997 66.7252ZM2.32 66.7252C2.32 68.4052 3.472 69.5212 5.2 69.5212C6.928 69.5212 8.08 68.4052 8.08 66.7252C8.08 65.0572 6.928 63.9412 5.2 63.9412C3.472 63.9412 2.32 65.0572 2.32 66.7252ZM9.4 83.1952L9.4 85.1512L0.999996 82.4032L0.999996 80.1472L7.468 78.4552L0.999997 76.7632L0.999997 74.5072L9.4 71.7712L9.4 73.7152L2.656 75.5992L9.4 77.3152L9.4 79.5952L2.656 81.3232L9.4 83.1952ZM9.4 92.7069L9.4 94.3509L0.999996 94.3509L0.999996 92.2269L7.276 88.0869L0.999996 88.0869L0.999996 86.4309L9.4 86.4309L9.4 88.5309L3.1 92.7069L9.4 92.7069Z" fill="white"/>
</svg>
