<svg width="111" height="22" viewBox="0 0 111 22" fill="none" xmlns="http://www.w3.org/2000/svg">
<path d="M11.0087 0.620361L13.6075 8.66119H22.0174L15.2136 13.6307L17.8124 21.6715L11.0087 16.702L4.20495 21.6715L6.80375 13.6307L0 8.66119H8.40989L11.0087 0.620361Z" fill="#FF9C2C"/>
<path d="M55.0439 0.620361L57.6427 8.66119H66.0525L59.2488 13.6307L61.8476 21.6715L55.0439 16.702L48.2401 21.6715L50.8389 13.6307L44.0352 8.66119H52.4451L55.0439 0.620361Z" fill="#FF9C2C"/>
<path d="M33.0253 0.620361L35.6241 8.66119H44.034L37.2302 13.6307L39.829 21.6715L33.0253 16.702L26.2215 21.6715L28.8203 13.6307L22.0166 8.66119H30.4265L33.0253 0.620361Z" fill="#FF9C2C"/>
<path d="M77.0605 0.620361L79.6593 8.66119H88.0691L81.2654 13.6307L83.8642 21.6715L77.0605 16.702L70.2567 21.6715L72.8555 13.6307L66.0518 8.66119H74.4617L77.0605 0.620361Z" fill="#FF9C2C"/>
<path d="M99.079 0.620361L101.678 8.66119H110.088L103.284 13.6307L105.883 21.6715L99.079 16.702L92.2753 21.6715L94.8741 13.6307L88.0703 8.66119H96.4802L99.079 0.620361Z" fill="#FF9C2C"/>
</svg>
